<?xml version="1.0" encoding="UTF-8"?>
<svg width="96px" height="53px" viewBox="0 0 96 53" version="1.1" xmlns="http://www.w3.org/2000/svg" xmlns:xlink="http://www.w3.org/1999/xlink">
    <!-- Generator: Sketch 40.3 (33839) - http://www.bohemiancoding.com/sketch -->
    <title>Shape</title>
    <desc>Created with Sketch.</desc>
    <defs></defs>
    <g id="Page-1" stroke="none" stroke-width="1" fill="none" fill-rule="evenodd">
        <g id="Artboard" transform="translate(-60.000000, -192.000000)" fill="#FFFFFF">
            <g id="Side-nav">
                <path d="M154.344828,210.21875 L144.413793,210.21875 L144.413793,196.96875 C144.413793,194.229312 142.180966,192 139.438345,192 L122.906483,192 C121.627034,192 120.470069,192.498531 119.586207,193.295187 C118.704,192.498531 117.547034,192 116.265931,192 L99.734069,192 C98.4546207,192 97.2976552,192.498531 96.4137931,193.295187 C95.5315862,192.498531 94.3746207,192 93.0935172,192 L76.5616552,192 C73.8190345,192 71.5862069,194.229312 71.5862069,196.96875 L71.5862069,210.21875 L61.6551724,210.21875 C60.7415172,210.21875 60,210.96075 60,211.875 L60,233.40625 C60,234.3205 60.7415172,235.0625 61.6551724,235.0625 L73.2413793,235.0625 L76.5517241,235.0625 L76.5517241,243.34375 C76.5517241,244.258 77.2932414,245 78.2068966,245 L84.8275862,245 C85.4548966,245 86.0275862,244.645562 86.3073103,244.084094 L90.816,235.0625 L125.184,235.0625 L129.69269,244.084094 C129.972414,244.645562 130.545103,245 131.172414,245 L137.793103,245 C138.706759,245 139.448276,244.258 139.448276,243.34375 L139.448276,235.0625 L142.758621,235.0625 L154.344828,235.0625 C155.258483,235.0625 156,234.3205 156,233.40625 L156,211.875 C156,210.96075 155.258483,210.21875 154.344828,210.21875 L154.344828,210.21875 Z M122.906483,195.3125 L139.438345,195.3125 C140.356966,195.3125 141.103448,196.056156 141.103448,196.96875 L141.103448,211.875 L141.103448,220.15625 L121.241379,220.15625 L121.241379,196.96875 C121.241379,196.056156 121.987862,195.3125 122.906483,195.3125 L122.906483,195.3125 Z M99.734069,195.3125 L116.265931,195.3125 C117.184552,195.3125 117.931034,196.056156 117.931034,196.96875 L117.931034,220.15625 L98.0689655,220.15625 L98.0689655,196.96875 C98.0689655,196.056156 98.8154483,195.3125 99.734069,195.3125 L99.734069,195.3125 Z M74.8965517,196.96875 C74.8965517,196.056156 75.6430345,195.3125 76.5616552,195.3125 L93.0935172,195.3125 C94.0121379,195.3125 94.7586207,196.056156 94.7586207,196.96875 L94.7586207,220.15625 L74.8965517,220.15625 L74.8965517,211.875 L74.8965517,196.96875 L74.8965517,196.96875 Z M63.3103448,213.53125 L71.5862069,213.53125 L71.5862069,221.8125 L71.5862069,231.75 L63.3103448,231.75 L63.3103448,213.53125 L63.3103448,213.53125 Z M74.8965517,223.46875 L96.4137931,223.46875 L119.586207,223.46875 L141.103448,223.46875 L141.103448,231.75 L137.793103,231.75 L126.206897,231.75 L89.7931034,231.75 L78.2068966,231.75 L74.8965517,231.75 L74.8965517,223.46875 L74.8965517,223.46875 Z M83.8046897,241.6875 L79.862069,241.6875 L79.862069,235.0625 L87.1150345,235.0625 L83.8046897,241.6875 L83.8046897,241.6875 Z M136.137931,241.6875 L132.19531,241.6875 L128.884966,235.0625 L136.137931,235.0625 L136.137931,241.6875 L136.137931,241.6875 Z M152.689655,231.75 L144.413793,231.75 L144.413793,221.8125 L144.413793,213.53125 L152.689655,213.53125 L152.689655,231.75 L152.689655,231.75 Z" id="Shape"></path>
            </g>
        </g>
    </g>
</svg>